<svg width="1600" height="1200" viewBox="0 0 1600 1200" fill="none" xmlns="http://www.w3.org/2000/svg">
  <defs>
    <linearGradient id="sky" x1="0" y1="0" x2="1600" y2="1200" gradientUnits="userSpaceOnUse">
      <stop stop-color="#EFF6FF"/>
      <stop offset="0.48" stop-color="#DCEBFF"/>
      <stop offset="1" stop-color="#C6F0EF"/>
    </linearGradient>
    <linearGradient id="panel" x1="188" y1="184" x2="1412" y2="1008" gradientUnits="userSpaceOnUse">
      <stop stop-color="#2F5BE7"/>
      <stop offset="0.48" stop-color="#1D7CE3"/>
      <stop offset="1" stop-color="#14B8A6"/>
    </linearGradient>
    <linearGradient id="shelf" x1="366" y1="336" x2="1268" y2="896" gradientUnits="userSpaceOnUse">
      <stop stop-color="#0F172A" stop-opacity="0.90"/>
      <stop offset="1" stop-color="#1E293B" stop-opacity="0.82"/>
    </linearGradient>
    <filter id="blur40" x="-20" y="-20" width="1640" height="1240" filterUnits="userSpaceOnUse">
      <feGaussianBlur stdDeviation="40"/>
    </filter>
    <filter id="shadow" x="-40" y="-40" width="1680" height="1280" filterUnits="userSpaceOnUse">
      <feDropShadow dx="0" dy="30" stdDeviation="28" flood-color="#0F172A" flood-opacity="0.22"/>
    </filter>
  </defs>

  <rect width="1600" height="1200" fill="url(#sky)"/>
  <circle cx="260" cy="210" r="220" fill="#FFFFFF" fill-opacity="0.42" filter="url(#blur40)"/>
  <circle cx="1300" cy="210" r="260" fill="#7DD3FC" fill-opacity="0.42" filter="url(#blur40)"/>
  <circle cx="1240" cy="970" r="280" fill="#34D399" fill-opacity="0.28" filter="url(#blur40)"/>
  <circle cx="380" cy="980" r="260" fill="#60A5FA" fill-opacity="0.22" filter="url(#blur40)"/>

  <g opacity="0.34">
    <rect x="120" y="120" width="1360" height="960" rx="48" fill="#FFFFFF"/>
  </g>

  <g opacity="0.9" filter="url(#shadow)">
    <rect x="236" y="238" width="1128" height="724" rx="42" fill="url(#panel)"/>
    <path d="M236 368C420 308 612 288 800 288C1038 288 1248 324 1364 372V962H236V368Z" fill="#0B3C9B" fill-opacity="0.18"/>
    <rect x="280" y="280" width="1040" height="636" rx="30" fill="url(#shelf)" fill-opacity="0.76"/>

    <g opacity="0.92">
      <rect x="322" y="336" width="956" height="24" rx="12" fill="#E2E8F0" fill-opacity="0.76"/>
      <rect x="322" y="496" width="956" height="24" rx="12" fill="#E2E8F0" fill-opacity="0.76"/>
      <rect x="322" y="656" width="956" height="24" rx="12" fill="#E2E8F0" fill-opacity="0.76"/>
      <rect x="322" y="816" width="956" height="24" rx="12" fill="#E2E8F0" fill-opacity="0.76"/>
    </g>

    <g>
      <rect x="364" y="372" width="152" height="98" rx="22" fill="#EFF6FF" fill-opacity="0.88"/>
      <rect x="534" y="372" width="188" height="98" rx="22" fill="#DBEAFE" fill-opacity="0.88"/>
      <rect x="742" y="372" width="134" height="98" rx="22" fill="#D1FAE5" fill-opacity="0.88"/>
      <rect x="898" y="372" width="210" height="98" rx="22" fill="#BAE6FD" fill-opacity="0.88"/>
      <rect x="1126" y="372" width="112" height="98" rx="22" fill="#FEF3C7" fill-opacity="0.88"/>

      <rect x="404" y="544" width="126" height="98" rx="22" fill="#DCFCE7" fill-opacity="0.9"/>
      <rect x="548" y="544" width="186" height="98" rx="22" fill="#E0F2FE" fill-opacity="0.9"/>
      <rect x="752" y="544" width="120" height="98" rx="22" fill="#FEE2E2" fill-opacity="0.9"/>
      <rect x="892" y="544" width="178" height="98" rx="22" fill="#E9D5FF" fill-opacity="0.86"/>
      <rect x="1088" y="544" width="150" height="98" rx="22" fill="#DBEAFE" fill-opacity="0.9"/>

      <rect x="360" y="704" width="172" height="98" rx="22" fill="#BAE6FD" fill-opacity="0.9"/>
      <rect x="552" y="704" width="128" height="98" rx="22" fill="#D9F99D" fill-opacity="0.88"/>
      <rect x="700" y="704" width="170" height="98" rx="22" fill="#FDE68A" fill-opacity="0.88"/>
      <rect x="888" y="704" width="144" height="98" rx="22" fill="#CCFBF1" fill-opacity="0.88"/>
      <rect x="1050" y="704" width="188" height="98" rx="22" fill="#FECACA" fill-opacity="0.86"/>
    </g>

    <g opacity="0.45">
      <circle cx="404" cy="258" r="22" fill="#FFFFFF"/>
      <circle cx="472" cy="258" r="22" fill="#FFFFFF"/>
      <circle cx="540" cy="258" r="22" fill="#FFFFFF"/>
    </g>

    <g opacity="0.28">
      <path d="M1306 340C1212 410 1178 490 1180 598C1183 700 1242 792 1338 850" stroke="#FFFFFF" stroke-width="18" stroke-linecap="round"/>
      <path d="M1304 466C1242 530 1222 598 1228 674C1235 746 1274 806 1340 854" stroke="#0F172A" stroke-opacity="0.48" stroke-width="18" stroke-linecap="round"/>
    </g>
  </g>

  <g opacity="0.6">
    <rect x="160" y="1060" width="1280" height="18" rx="9" fill="#FFFFFF" fill-opacity="0.6"/>
  </g>
</svg>
